#!OML:ASF Y:\EmotionMaleHayes\Project 1\Capture day 1\Session 1\Male1.ASF
:FULLY-SPECIFIED
:DEGREES
536
root -13.092 17.1261 -2.01924 356.603 75.3043 358.626
lowerback 7.18011 3.30104 -0.995388
upperback 4.46602 4.44086 -0.623928
thorax 0.568307 2.2585 -0.37482
lowerneck -23.8039 3.29631 5.48867
upperneck 30.4723 3.4254 -1.20424
head 14.652 2.07954 -0.72792
rclavicle 3.18552e-014 -8.94531e-015
rhumerus 48.0294 20.5537 -37.0093
rradius 40.3211
rwrist -0.962369
rhand 0.407711 -29.4768
rfingers 7.12502
rthumb 25.9808 -57.7209
lclavicle 3.18552e-014 -8.94531e-015
lhumerus 41.8345 -17.9414 26.8717
lradius 41.528
lwrist 5.54646
lhand -5.52794 -20.3642
lfingers 7.12502
lthumb 20.2861 8.59635
rfemur 15.9886 1.65347 3.77121
rtibia 11.9307
rfoot -11.0956 -12.6843
rtoes 21.298
lfemur -5.47725 6.42554 -12.2153
ltibia 18.0795
lfoot -11.9569 10.6782
ltoes -9.16102
537
root -13.0255 17.1454 -2.07087 357.025 75.1005 359.014
lowerback 7.03203 3.31616 -1.25813
upperback 4.46155 4.4478 -0.671658
thorax 0.629748 2.25682 -0.269309
lowerneck -23.7285 3.34157 5.44091
upperneck 30.3677 3.48134 -1.1201
head 14.5882 2.10804 -0.676019
rclavicle -4.35338e-014 1.05356e-014
rhumerus 48.4125 20.6585 -36.8346
rradius 40.0848
rwrist -1.21208
rhand 0.198869 -30.1104
rfingers 7.12502
rthumb 25.7808 -58.3836
lclavicle -4.35338e-014 1.05356e-014
lhumerus 41.8196 -17.7701 26.8074
lradius 41.4542
lwrist 5.33817
lhand -5.52406 -20.3927
lfingers 7.12502
lthumb 20.2898 8.56753
rfemur 15.6821 1.56588 3.55517
rtibia 12.3597
rfoot -10.5842 -13.6506
rtoes 21.0945
lfemur -5.05093 6.42561 -12.5695
ltibia 17.6001
lfoot -12.056 10.8078
ltoes -9.33387
538
root -12.9576 17.1619 -2.12094 357.456 74.9819 359.463
lowerback 7.0928 3.32348 -1.59224
upperback 4.37632 4.4332 -0.675167
thorax 0.484036 2.24285 -0.0946331
lowerneck -23.6443 3.36963 5.36797
upperneck 30.3414 3.54133 -1.07134
head 14.5576 2.13254 -0.633262
rclavicle -1.86858e-014 6.75868e-015
rhumerus 48.5491 20.7566 -36.6572
rradius 40.0416
rwrist -1.27567
rhand 0.599647 -30.7215
rfingers 7.12502
rthumb 26.1646 -58.9384
lclavicle -1.86858e-014 6.75868e-015
lhumerus 41.8437 -17.7111 26.9182
lradius 41.2684
lwrist 5.17353
lhand -5.56532 -20.3918
lfingers 7.12502
lthumb 20.2502 8.57257
rfemur 15.4645 1.44959 3.31791
rtibia 12.7807
rfoot -10.4328 -14.0871
rtoes 21.0766
lfemur -4.55651 6.40601 -12.9441
ltibia 17.1058
lfoot -12.2028 10.8259
ltoes -8.13017
539
root -12.8899 17.1753 -2.16866 357.499 74.9529 359.53
lowerback 7.40208 3.30801 -1.7862
upperback 4.15878 4.38373 -0.669255
thorax 0.0748039 2.21518 -0.00652681
lowerneck -23.6672 3.35088 5.33193
upperneck 30.537 3.54726 -1.09181
head 14.6496 2.13255 -0.63251
rclavicle -2.36554e-014 1.19271e-014
rhumerus 48.3666 20.9423 -36.536
rradius 40.1744
rwrist -1.34748
rhand 0.998017 -30.8627
rfingers 7.12502
rthumb 26.5459 -59.0225
lclavicle -2.36554e-014 1.19271e-014
lhumerus 41.7991 -17.8134 27.1035
lradius 41.0838
lwrist 5.04693
lhand -5.87099 -20.4777
lfingers 7.12502
lthumb 19.9564 8.51762
rfemur 15.306 1.29569 3.21866
rtibia 13.158
rfoot -10.3041 -14.5396
rtoes 22.4765
lfemur -4.12204 6.30505 -13.2266
ltibia 16.7274
lfoot -12.3538 10.9074
ltoes -7.48157
540
root -12.8236 17.1876 -2.21404 356.761 74.8753 358.783
lowerback 6.72419 3.20452 -1.70188
upperback 4.60549 4.28783 -0.652081
thorax 0.9163 2.16667 0.0315591
lowerneck -23.9622 3.45919 5.41492
upperneck 30.232 3.66389 -1.21703
head 14.5869 2.15907 -0.674302
rclavicle -2.8625e-014 7.95139e-015
rhumerus 48.878 20.5052 -36.4792
rradius 40.2175
rwrist -1.46494
rhand 0.773859 -30.4563
rfingers 7.12502
rthumb 26.3314 -58.6484
lclavicle -2.8625e-014 7.95139e-015
lhumerus 42.1332 -16.904 27.2327
lradius 40.7363
lwrist 4.74289
lhand -6.13519 -20.5691
lfingers 7.12502
lthumb 19.7024 8.45238
rfemur 15.1113 1.17382 3.40333
rtibia 13.5651
rfoot -10.2719 -14.81
rtoes 24.5791
lfemur -3.71622 6.2424 -13.2095
ltibia 16.3989
lfoot -12.5164 10.9131
ltoes -7.25799
541
root -12.7577 17.2007 -2.25878 356.227 74.763 358.286
lowerback 7.09739 3.25304 -1.81252
upperback 4.34098 4.32432 -0.581279
thorax 0.423046 2.18275 0.128909
lowerneck -23.8148 3.40799 5.4152
upperneck 30.3366 3.6273 -1.26462
head 14.6011 2.14213 -0.702022
rclavicle -1.58531e-014 7.95139e-016
rhumerus 48.4576 20.6794 -36.621
rradius 40.349
rwrist -1.42053
rhand 0.618947 -29.9188
rfingers 7.12502
rthumb 26.1831 -58.133
lclavicle -1.58531e-014 7.95139e-016
lhumerus 42.1531 -17.1394 27.2582
lradius 40.5866
lwrist 4.87103
lhand -6.44261 -20.3621
lfingers 7.12502
lthumb 19.4068 8.68946
rfemur 14.9548 0.958597 3.43216
rtibia 13.9467
rfoot -10.2362 -14.7063
rtoes 26.609
lfemur -3.21417 6.21861 -13.2577
ltibia 16.002
lfoot -12.7084 10.8381
ltoes -6.47413
542
root -12.6939 17.215 -2.30129 356.119 74.7302 358.237
lowerback 7.00049 3.20692 -1.94066
upperback 4.41464 4.2619 -0.610317
thorax 0.546936 2.14928 0.183338
lowerneck -23.7192 3.49392 5.57033
upperneck 30.1136 3.72536 -1.38716
head 14.4926 2.17946 -0.762045
rclavicle 2.26118e-014 -6.36111e-015
rhumerus 48.5633 20.5213 -36.685
rradius 40.4103
rwrist -1.39595
rhand 0.499437 -29.6925
rfingers 7.12502
rthumb 26.0687 -57.9237
lclavicle 2.26118e-014 -6.36111e-015
lhumerus 42.2759 -16.9506 26.9905
lradius 40.4953
lwrist 5.18707
lhand -6.69922 -20.1849
lfingers 7.12502
lthumb 19.1601 8.89126
rfemur 14.8448 0.862676 3.44823
rtibia 14.2448
rfoot -10.1817 -14.9751
rtoes 28.2311
lfemur -2.68653 6.13694 -13.4658
ltibia 15.5034
lfoot -12.6425 10.9218
ltoes -6.60165
543
root -12.6311 17.2278 -2.3399 355.838 74.7835 357.954
lowerback 7.02935 3.15055 -2.08031
upperback 4.3466 4.17473 -0.577071
thorax 0.450131 2.10268 0.296189
lowerneck -23.6507 3.5398 5.5469
upperneck 30.0836 3.79134 -1.34355
head 14.4657 2.21141 -0.728465
rclavicle -2.09221e-014 3.18055e-015
rhumerus 48.5364 20.4957 -36.8119
rradius 40.3741
rwrist -1.39693
rhand 0.360712 -29.6543
rfingers 7.12502
rthumb 25.9358 -57.905
lclavicle -2.09221e-014 3.18055e-015
lhumerus 42.3134 -16.7566 27.2106
lradius 40.2134
lwrist 5.07943
lhand -6.82284 -20.2811
lfingers 7.12502
lthumb 19.0412 8.80685
rfemur 14.7218 0.760735 3.6119
rtibia 14.5115
rfoot -10.0638 -15.5217
rtoes 28.9878
lfemur -2.26346 6.01675 -13.5847
ltibia 15.0551
lfoot -12.4423 11.0451
ltoes -7.72507
544
root -12.5696 17.2406 -2.37653 355.774 74.8258 357.907
lowerback 7.36516 3.15592 -2.32167
upperback 4.09282 4.14585 -0.555114
thorax -0.0146216 2.0863 0.424423
lowerneck -23.6621 3.44866 5.31957
upperneck 30.3928 3.67139 -1.05704
head 14.5879 2.18389 -0.593439
rclavicle -2.57923e-014 1.35174e-014
rhumerus 48.2567 20.5987 -36.9661
rradius 40.2763
rwrist -1.48447
rhand 0.273214 -29.8025
rfingers 7.12502
rthumb 25.852 -58.0654
lclavicle -2.57923e-014 1.35174e-014
lhumerus 42.2149 -16.8484 27.4444
lradius 40.1031
lwrist 5.02094
lhand -7.08801 -20.4271
lfingers 7.12502
lthumb 18.7862 8.68574
rfemur 14.6015 0.521538 3.63086
rtibia 14.7685
rfoot -9.91252 -15.9516
rtoes 29.2831
lfemur -1.84289 5.89096 -13.7649
ltibia 14.6721
lfoot -12.5244 11.0328
ltoes -7.62765
545
root -12.5085 17.2547 -2.41379 356.213 74.8063 358.404
lowerback 6.9958 3.11272 -2.6259
upperback 4.34393 4.09485 -0.599475
thorax 0.433207 2.05324 0.582829
lowerneck -23.7822 3.44995 5.21493
upperneck 30.2753 3.6692 -0.98259
head 14.5567 2.17591 -0.54542
rclavicle 2.08724e-014 -1.19271e-015
rhumerus 48.6107 20.3321 -36.7063
rradius 40.3177
rwrist -1.78717
rhand -0.0166255 -30.0353
rfingers 7.12502
rthumb 25.5744 -58.3383
lclavicle 2.08724e-014 -1.19271e-015
lhumerus 42.3255 -16.325 27.4218
lradius 40.0469
lwrist 5.08546
lhand -7.30225 -20.4389
lfingers 7.12502
lthumb 18.5801 8.69378
rfemur 14.4757 0.225836 3.43077
rtibia 15.0214
rfoot -9.88522 -16.2999
rtoes 29.0416
lfemur -1.35384 5.87901 -14.1079
ltibia 14.21
lfoot -12.7222 10.9647
ltoes -6.36489
